<mxfile host="app.diagrams.net">
  <diagram id="tampered" name="Page-1">
    <mxGraphModel dx="827" dy="504" grid="1" gridSize="10" guides="1" tooltips="1"
      connect="1" arrows="1" fold="1" page="1" pageScale="1" pageWidth="827" pageHeight="1169" math="0" shadow="0">
      <root>
        <mxCell id="0"/>
        <mxCell id="1" parent="0"/>
        <mxCell id="7" value="InternalService" style="shape=ellipse;fillColor=#ffffff;strokeColor=#000000;" vertex="1" parent="1">
          <mxGeometry x="200" y="100" width="120" height="60" as="geometry"/>
        </mxCell>
        <mxCell id="8" value="Database" style="shape=ellipse;fillColor=#ffffff;strokeColor=#000000;" vertex="1" parent="1">
          <mxGeometry x="400" y="100" width="120" height="60" as="geometry"/>
        </mxCell>
        <mxCell id="9" style="edgeStyle=orthogonalEdgeStyle;rounded=0;" edge="1" parent="1" source="7" target="8">
          <mxGeometry relative="1" as="geometry"/>
        </mxCell>
      </root>
    </mxGraphModel>
  </diagram>
</mxfile>